<svg xmlns="http://www.w3.org/2000/svg" id="a2a9b6bb-809f-403b-bb2f-2dff78fd7fe9" data-name="b385ca18-4b85-46d4-bb4b-571c73a19812" width="18.1738" height="30.1341" viewBox="0 0 18.1738 30.1341"><title>arrow-up</title><path d="M8.4829.25.2616,8.4717a.8482.8482,0,0,0-.261.601L0,9.0874a.8526.8526,0,0,0,.2409.5956.8642.8642,0,0,0,1.2221.0106l.0079-.0079L8.232,2.9239V29.2682a.8566.8566,0,1,0,1.7131.0185c0-.0062,0-.0123,0-.0185V2.9239L16.7042,9.683a.8575.8575,0,0,0,1.2113.0214.8462.8462,0,0,0,.2583-.61.8951.8951,0,0,0-.2556-.621L9.6942.25A.8587.8587,0,0,0,8.4829.25Z"></path></svg>