<svg xmlns="http://www.w3.org/2000/svg" width="120" height="120" viewBox="0 0 120 120"><g transform="translate(-1060 -225)"><g transform="translate(1060 225)" fill="none" stroke="#e59e00" stroke-width="1"><circle cx="60" cy="60" r="60" stroke="none"/><circle cx="60" cy="60" r="59.5" fill="none"/></g><path d="M-1396.457,46a1.2,1.2,0,0,1-.5-.167l-3.365-2.509a.8.8,0,0,1-.252-1l1.514-3.764-2.272-3.011a.758.758,0,0,1,0-1l1.43-2.175-1.514-4.6a.651.651,0,0,1,.084-.669l1.43-2.844L-1401.169,23c-.252,0-.336-.167-.336-.418v-3a3.6,3.6,0,0,1-.673-.6c-2.626-2.683-2.722-10.333-2.7-13.083-3.716.411-7.563,3.44-7.563,7.479V40.313a1.646,1.646,0,0,1-.5,1.171,1.414,1.414,0,0,1-1.262.335,2.083,2.083,0,0,0-1.01.084,2.076,2.076,0,0,0-1.262,1.254,2.458,2.458,0,0,0-.168,1.087,1.687,1.687,0,0,1-.337,1.254,1.532,1.532,0,0,1-1.178.5h-13.377A4.475,4.475,0,0,1-1436,41.568V5.27a4.475,4.475,0,0,1,4.459-4.433h14.639a4.475,4.475,0,0,1,4.459,4.433V8.428a10.547,10.547,0,0,1,7.652-4.217,3.957,3.957,0,0,1,1.1-2.036c2.356-2.258,7.067-2.175,7.236-2.175s4.88-.084,7.151,2.175a3.736,3.736,0,0,1,1.262,2.844c.084,1.087.336,10.873-2.693,13.967a3.594,3.594,0,0,1-.673.6v3a.757.757,0,0,1-.252.585l-1.262,1.254,1.43,2.844a1.62,1.62,0,0,1,.084.669l-1.514,4.6,1.43,2.175a1.06,1.06,0,0,1,0,1l-2.271,3.011,1.514,3.764a.913.913,0,0,1-.252,1L-1395.868,46A1.382,1.382,0,0,0-1396.457,46ZM-1434.318,5.27v36.3a2.793,2.793,0,0,0,2.776,2.76h13.293a4.425,4.425,0,0,1,.168-1.756,3.778,3.778,0,0,1,2.272-2.258,6.441,6.441,0,0,1,1.767-.251V13.382h-.084a7.769,7.769,0,0,1,.084-1.141V5.27a2.926,2.926,0,0,0-2.861-2.76h-14.639A2.793,2.793,0,0,0-1434.318,5.27Zm34.579,16.978,1.43,1.422a.885.885,0,0,1,.168,1l-1.514,3.011,1.6,4.683a.81.81,0,0,1-.084.753l-1.515,2.007,2.188,2.844a.75.75,0,0,1,.084.836l-1.43,3.6,2.356,1.756,2.356-1.756-1.43-3.6a.984.984,0,0,1,.084-.836l2.188-2.844-1.346-2.007a.809.809,0,0,1-.084-.753l1.6-4.683-1.514-3.011a.908.908,0,0,1,.168-1l1.43-1.422V20.073h-2.608V30.109a.792.792,0,0,1-.841.836.792.792,0,0,1-.841-.836V20.073h-2.44Zm-2.693-18.9a2.1,2.1,0,0,0-.757,1.673c-.084,2.844.084,10.538,2.188,12.8a1.667,1.667,0,0,0,1.178.5h6.731a1.824,1.824,0,0,0,1.178-.5c2.187-2.258,2.356-10.036,2.187-12.8a2.327,2.327,0,0,0-.673-1.673c-1.43-1.422-4.88-1.673-5.973-1.673h-.168C-1397.8,1.673-1401,1.924-1402.431,3.346Zm-25.156,38.472a4.154,4.154,0,0,1-4.207-4.182V9.2a4.154,4.154,0,0,1,4.207-4.182h6.731a4.154,4.154,0,0,1,4.207,4.182V37.637a4.154,4.154,0,0,1-4.207,4.182Zm-2.524-4.182a2.472,2.472,0,0,0,2.524,2.509h6.731a2.472,2.472,0,0,0,2.524-2.509V24.255h-11.779Zm0-28.436V22.582h11.779V9.2a2.472,2.472,0,0,0-2.524-2.509h-6.731A2.472,2.472,0,0,0-1430.111,9.2Zm3.2,28.436a1.5,1.5,0,0,1-1.514-1.506v-3.68a1.5,1.5,0,0,1,1.514-1.505h.168V28.437a2.472,2.472,0,0,1,2.524-2.509,2.472,2.472,0,0,1,2.524,2.509.793.793,0,0,1-.841.836.793.793,0,0,1-.842-.836.793.793,0,0,0-.841-.836.793.793,0,0,0-.842.836v2.509h3.534a1.5,1.5,0,0,1,1.515,1.505v3.68a1.5,1.5,0,0,1-1.514,1.506Zm.168-1.673h5.048V32.619h-5.048Zm-.168-15.891a1.5,1.5,0,0,1-1.514-1.506v-3.68a1.5,1.5,0,0,1,1.514-1.506h.168V10.873a2.472,2.472,0,0,1,2.524-2.509,2.472,2.472,0,0,1,2.524,2.509v2.509h.168a1.5,1.5,0,0,1,1.514,1.506v3.68a1.5,1.5,0,0,1-1.514,1.506Zm.168-1.673h5.048V15.055h-5.048Zm1.683-7.527h0v2.509h1.682V10.873a.792.792,0,0,0-.841-.836A.792.792,0,0,0-1425.063,10.873Zm26.334-1.673a1.882,1.882,0,0,1-1.935-1.84V6.022a1.882,1.882,0,0,1,1.935-1.84h4.627a1.862,1.862,0,0,1,1.851,1.84V7.277A1.881,1.881,0,0,1-1394.1,9.2Zm-.252-3.178V7.277a.222.222,0,0,0,.252.251h4.627a.181.181,0,0,0,.168-.167V6.022a.181.181,0,0,0-.168-.167h-4.627C-1398.9,5.855-1398.981,5.939-1398.981,6.022Z" transform="translate(2532 262)" fill="#e59e00"/></g></svg>