<svg xmlns="http://www.w3.org/2000/svg" width="120" height="120" viewBox="0 0 120 120"><g transform="translate(-187 -225)"><g transform="translate(187 225)" fill="none" stroke="#e59e00" stroke-width="1"><circle cx="60" cy="60" r="60" stroke="none"/><circle cx="60" cy="60" r="59.5" fill="none"/></g><path d="M0,50V0H30.082l7.482,7.471V50Zm2.087-2.084H35.479V9.375H28.172V2.084H2.087ZM30.26,7.291h4.173L30.26,3.125Zm9.391,37.847,1.295-4.514H39.651V12.5A4.174,4.174,0,0,1,48,12.5V40.625H46.7L48,45.139l-4.176,2.777Zm2.426-.888,1.747,1.163,1.749-1.163-1.039-3.625H43.116ZM41.739,12.5V38.541h4.173V12.5a2.086,2.086,0,0,0-4.173,0ZM11.478,44.791l-3.13,1.044V40.625a5.218,5.218,0,1,1,6.261,0v5.209Zm.66-1.975.384.127V41.562a5.3,5.3,0,0,1-2.086,0v1.381l.383-.127.66-.22Zm-3.79-6.357a3.13,3.13,0,1,0,3.13-3.125A3.132,3.132,0,0,0,8.348,36.459ZM24,38.541a1.041,1.041,0,1,1,0-2.081H30.26a1.041,1.041,0,1,1,0,2.081ZM10.435,36.459A1.043,1.043,0,1,1,11.478,37.5,1.043,1.043,0,0,1,10.435,36.459ZM7.3,27.084A1.042,1.042,0,1,1,7.3,25H30.26a1.042,1.042,0,1,1,0,2.084Zm0-6.251a1.042,1.042,0,1,1,0-2.084H30.26a1.042,1.042,0,1,1,0,2.084Zm0-6.25a1.042,1.042,0,1,1,0-2.084H18.782a1.042,1.042,0,1,1,0,2.084Z" transform="translate(223 260)" fill="#e59e00"/></g></svg>