<svg xmlns="http://www.w3.org/2000/svg" width="120" height="120" viewBox="0 0 120 120"><g transform="translate(-769 -225)"><g transform="translate(769 225)" fill="none" stroke="#e59e00" stroke-width="1"><circle cx="60" cy="60" r="60" stroke="none"/><circle cx="60" cy="60" r="59.5" fill="none"/></g><path d="M-1401.877,57.434c-3.454-5.985-6.66-11.667-10.123-17.678-3.484,6.048-6.661,11.677-10.123,17.678a1.132,1.132,0,0,1-.98.566h-.037a1.13,1.13,0,0,1-.978-.63l-3.283-6.645-7.394.477a1.132,1.132,0,0,1-1.035-.533,1.133,1.133,0,0,1-.019-1.164c3.35-5.806,6.476-11.346,9.793-17.105a19.09,19.09,0,0,1-5.19-13.141A19.273,19.273,0,0,1-1412,0a19.273,19.273,0,0,1,19.245,19.258,19.089,19.089,0,0,1-5.19,13.141c3.313,5.753,6.44,11.292,9.793,17.105a1.133,1.133,0,0,1-.019,1.164,1.133,1.133,0,0,1-1.034.533l-7.394-.477-3.283,6.646a1.132,1.132,0,0,1-.978.63h-.037A1.131,1.131,0,0,1-1401.877,57.434Zm-8.275-19.006c3.2,5.553,6.033,10.566,9.179,16.039l2.433-4.924c-1.76-3.061-5.593-9.787-6.946-12.162A18.969,18.969,0,0,1-1410.152,38.427Zm-15.167,11.4,2.292,4.641c3.143-5.468,5.974-10.477,9.179-16.038a19.005,19.005,0,0,1-4.417-.961C-1420.539,41.421-1423.063,45.9-1425.32,49.824Zm21.927-13.345c1.458,2.559,5.148,9.032,6.841,11.977l5.384.347c-2.88-5.012-5.61-9.836-8.467-14.8A19.125,19.125,0,0,1-1403.393,36.48ZM-1432.832,48.8l5.7-.367c2.168-3.772,4.539-7.979,6.758-11.842a19.075,19.075,0,0,1-3.99-2.59C-1427.233,38.986-1429.964,43.812-1432.832,48.8Zm3.851-29.546c0,7.657,4.958,15.836,17.042,16.992a17,17,0,0,0,16.92-16.992A17.006,17.006,0,0,0-1412,2.266,17.006,17.006,0,0,0-1428.981,19.258Zm4.528,0a12.46,12.46,0,0,1,7.57-11.464,1.131,1.131,0,0,1,1.486.6,1.132,1.132,0,0,1-.595,1.487,10.2,10.2,0,0,0-6.2,9.381A10.2,10.2,0,0,0-1412,29.453a10.2,10.2,0,0,0,10.189-10.2,10.2,10.2,0,0,0-6.2-9.38,1.133,1.133,0,0,1-.6-1.487,1.131,1.131,0,0,1,1.486-.6,12.459,12.459,0,0,1,7.57,11.463A12.471,12.471,0,0,1-1412,31.719,12.471,12.471,0,0,1-1424.453,19.258Zm11.434,6.716V24.652a4.694,4.694,0,0,1-2.071-1.476,1.132,1.132,0,0,1,.138-1.6,1.131,1.131,0,0,1,1.6.138,2.048,2.048,0,0,0,1.47.857,1.133,1.133,0,0,0,1.132-1.133,1.134,1.134,0,0,0-1.132-1.133,3.4,3.4,0,0,1-3.4-3.4,3.4,3.4,0,0,1,2.264-3.2V12.38a1.133,1.133,0,0,1,1.132-1.133,1.132,1.132,0,0,1,1.132,1.133V13.7a4.377,4.377,0,0,1,1.667,1.043,1.133,1.133,0,0,1,.026,1.6,1.131,1.131,0,0,1-1.6.026,1.819,1.819,0,0,0-1.225-.592,1.134,1.134,0,0,0-1.132,1.133,1.133,1.133,0,0,0,1.132,1.133,3.4,3.4,0,0,1,3.4,3.4,3.4,3.4,0,0,1-2.264,3.2v1.328a1.132,1.132,0,0,1-1.132,1.133A1.132,1.132,0,0,1-1413.019,25.974Zm-.113-18.044A1.133,1.133,0,0,1-1412,6.8a1.133,1.133,0,0,1,1.132,1.133A1.133,1.133,0,0,1-1412,9.063,1.133,1.133,0,0,1-1413.132,7.93Z" transform="translate(2241 256)" fill="#e59e00"/></g></svg>