<?xml version="1.0" encoding="UTF-8"?> <!-- Generator: Adobe Illustrator 24.3.0, SVG Export Plug-In . SVG Version: 6.00 Build 0) --> <svg xmlns="http://www.w3.org/2000/svg" xmlns:xlink="http://www.w3.org/1999/xlink" version="1.1" id="Layer_1" x="0px" y="0px" viewBox="0 0 80 29.638" style="enable-background:new 0 0 80 29.638;" xml:space="preserve"> <style type="text/css"> .st0{fill:#7A7676;} </style> <path class="st0" d="M0.112,21.268c-0.048-0.065-0.08-0.139-0.097-0.217s-0.019-0.159-0.006-0.239l0.031-0.186l0.031-0.186 l1.815-1.833l1.815-1.833h0.259H4.22c0.467,0.605,1.297,1.202,2.243,1.647s2.01,0.739,2.943,0.739c0.726,0,1.331-0.112,1.755-0.35 c0.424-0.238,0.666-0.601,0.666-1.102c0-0.398-0.303-0.7-0.817-0.985c-0.514-0.285-1.241-0.553-2.088-0.882 C7.557,15.305,6.027,14.7,4.838,13.71s-2.036-2.364-2.036-4.439c0-1.4,0.354-2.628,0.977-3.665s1.513-1.884,2.585-2.524 c0.864-0.519,1.85-0.899,2.896-1.15s2.152-0.372,3.259-0.372c1.699,0,3.342,0.305,4.743,0.845s2.56,1.316,3.293,2.257 c0.053,0.068,0.088,0.146,0.106,0.229c0.018,0.083,0.018,0.169,0.001,0.254l-0.024,0.121l-0.024,0.121 c-0.012,0.06-0.033,0.117-0.062,0.17c-0.029,0.053-0.066,0.101-0.109,0.144l-1.714,1.664l-1.714,1.664h-0.277h-0.277 c-0.38-0.449-0.968-0.977-1.716-1.392c-0.748-0.415-1.656-0.718-2.676-0.718c-0.657,0-1.167,0.121-1.513,0.363 c-0.346,0.242-0.527,0.605-0.527,1.089c0,0.501,0.285,0.856,0.722,1.145c0.437,0.29,1.024,0.514,1.63,0.757 c1.245,0.501,2.878,1.072,4.201,2.075c1.323,1.003,2.334,2.438,2.334,4.668c0,1.349-0.303,2.533-0.847,3.544 s-1.331,1.85-2.299,2.507c-0.916,0.605-1.988,1.055-3.151,1.353s-2.416,0.445-3.696,0.445c-1.861,0-3.664-0.358-5.203-0.986 C2.182,23.251,0.91,22.352,0.112,21.268z"></path> <path class="st0" d="M38.422,12.763c0,0.294-0.008,0.571-0.038,0.899s-0.082,0.709-0.17,1.21l-0.803,4.54l-0.803,4.54 c-0.025,0.144-0.101,0.268-0.206,0.357c-0.105,0.088-0.241,0.141-0.387,0.141h-2.777H30.46c-0.187,0-0.352-0.085-0.461-0.215 c-0.11-0.131-0.164-0.307-0.132-0.492l0.738-4.176l0.738-4.176c0.052-0.294,0.084-0.536,0.103-0.735 c0.019-0.199,0.025-0.354,0.025-0.475c0-0.571-0.19-1.003-0.514-1.292c-0.324-0.29-0.782-0.437-1.318-0.437 c-0.685,0-1.226,0.246-1.633,0.689s-0.678,1.083-0.825,1.871l-0.785,4.47l-0.785,4.47c-0.025,0.144-0.1,0.269-0.206,0.357 c-0.105,0.089-0.241,0.141-0.387,0.141h-2.742h-2.742c-0.187,0-0.352-0.084-0.461-0.215c-0.11-0.131-0.164-0.307-0.132-0.492 l2.055-11.272L23.05,1.201c0.023-0.131,0.087-0.246,0.179-0.333c0.092-0.087,0.21-0.145,0.342-0.161l2.942-0.354L29.456,0 l0.225,0.156l0.225,0.156l-0.607,3.05l-0.607,3.05c-0.038,0.219,0.044,0.418,0.189,0.548c0.145,0.13,0.354,0.19,0.568,0.132 c0.405-0.111,0.82-0.197,1.244-0.255c0.424-0.058,0.857-0.089,1.297-0.089c1.902,0,3.51,0.571,4.642,1.608 C37.765,9.392,38.422,10.896,38.422,12.763z"></path> <path class="st0" d="M38.943,17.224c0-2.023,0.519-3.89,1.47-5.472c0.951-1.582,2.334-2.879,4.063-3.76 c0.813-0.415,1.703-0.726,2.654-0.934s1.962-0.311,3.017-0.311c2.628,0,4.815,0.795,6.345,2.148s2.403,3.263,2.403,5.493 c0,2.023-0.519,3.89-1.47,5.472c-0.951,1.582-2.334,2.879-4.063,3.76c-0.813,0.415-1.703,0.726-2.654,0.934 c-0.951,0.207-1.962,0.311-3.017,0.311c-2.628,0-4.815-0.795-6.345-2.148C39.816,21.365,38.943,19.454,38.943,17.224z M50.561,18.4 c0.415-0.363,0.752-0.83,0.985-1.374c0.233-0.545,0.363-1.167,0.363-1.841c0-0.813-0.277-1.496-0.739-1.975 c-0.462-0.48-1.111-0.756-1.854-0.756c-0.45,0-0.873,0.095-1.262,0.268S47.311,13.144,47,13.455 c-0.346,0.346-0.622,0.787-0.813,1.292s-0.294,1.076-0.294,1.681c0,0.813,0.277,1.496,0.739,1.975 c0.462,0.48,1.111,0.756,1.854,0.756c0.398,0,0.769-0.069,1.115-0.199C49.947,18.832,50.267,18.642,50.561,18.4z"></path> <path class="st0" d="M72.669,6.747c2.196,0,4.028,0.813,5.312,2.165C79.265,10.265,80,12.158,80,14.319 c0,1.781-0.415,3.466-1.15,4.945c-0.735,1.478-1.789,2.749-3.069,3.7c-0.795,0.605-1.668,1.081-2.606,1.405 c-0.938,0.324-1.941,0.497-2.995,0.497c-0.62,0-1.211-0.074-1.77-0.211c-0.559-0.137-1.086-0.338-1.577-0.593 c-0.183-0.095-0.386-0.091-0.552-0.012c-0.166,0.079-0.295,0.233-0.33,0.436l-0.401,2.326l-0.401,2.326 c-0.025,0.144-0.1,0.269-0.205,0.358c-0.105,0.089-0.241,0.142-0.388,0.142h-2.794h-2.794c-0.187,0-0.352-0.084-0.461-0.215 c-0.11-0.131-0.164-0.307-0.132-0.492l1.338-7.6l1.338-7.6c0.069-0.363,0.043-0.631-0.056-0.808s-0.272-0.264-0.497-0.264 c-0.104,0-0.19,0.017-0.268,0.047s-0.147,0.073-0.216,0.125l-0.19-0.121l-0.19-0.121l0.035-2.248l0.035-2.248l0.138-0.242 l0.138-0.242c0.501-0.277,1.089-0.493,1.677-0.64c0.588-0.147,1.176-0.225,1.677-0.225c0.631,0,1.292,0.12,1.899,0.364 c0.607,0.245,1.16,0.614,1.574,1.114c0.1,0.121,0.236,0.192,0.379,0.211c0.143,0.019,0.295-0.013,0.425-0.099 c0.174-0.115,0.351-0.224,0.531-0.328c0.18-0.104,0.364-0.202,0.551-0.294c0.605-0.311,1.245-0.553,1.91-0.718 C71.269,6.833,71.961,6.747,72.669,6.747L72.669,6.747L72.669,6.747z M72.981,15.288c0-0.882-0.277-1.591-0.739-2.079 s-1.111-0.756-1.854-0.756c-0.449,0-0.873,0.095-1.262,0.268s-0.743,0.424-1.054,0.735c-0.346,0.363-0.622,0.804-0.813,1.292 c-0.19,0.488-0.294,1.024-0.294,1.578c0,0.899,0.277,1.608,0.739,2.092c0.462,0.484,1.111,0.743,1.854,0.743 c0.432,0,0.83-0.086,1.18-0.225c0.35-0.138,0.653-0.328,0.895-0.536c0.415-0.363,0.752-0.838,0.985-1.374 C72.851,16.489,72.981,15.893,72.981,15.288z"></path> </svg> 