<svg xmlns="http://www.w3.org/2000/svg" width="120" height="120" viewBox="0 0 120 120"><g transform="translate(-478 -225)"><g transform="translate(478 225)" fill="none" stroke="#e59e00" stroke-width="1"><circle cx="60" cy="60" r="60" stroke="none"/><circle cx="60" cy="60" r="59.5" fill="none"/></g><path d="M30.863,40.713v-.836a8.709,8.709,0,0,0,.681-.618,12.419,12.419,0,0,0,3.143-6.922,6.105,6.105,0,0,0,3.943-2.344c1.317-1.862,1.435-4.542.336-7.9a.909.909,0,0,0-.363-.472l-.5-.336a12.318,12.318,0,0,0-2.943-8.294C32.716,10.234,28.964,8.844,24,8.826c-4.96,0-8.721,1.408-11.165,4.124a12.318,12.318,0,0,0-2.943,8.294l-.5.336a.909.909,0,0,0-.363.472c-1.1,3.379-.981,6.041.336,7.9A6.123,6.123,0,0,0,13.3,32.328a12.428,12.428,0,0,0,3.152,6.932,8.862,8.862,0,0,0,.681.618v.836C13.657,41.385-.233,44.647,0,53.913a.909.909,0,0,0,.908.908H47.088A.909.909,0,0,0,48,53.913C48.233,44.647,34.343,41.385,30.863,40.713ZM12.758,30.3a3.943,3.943,0,0,1-1.926-1.408l.045.009c-.908-1.326-.99-3.334-.182-5.987l.663-.445a.908.908,0,0,0,.4-.845,10.738,10.738,0,0,1,2.471-7.477c2.053-2.326,5.351-3.488,9.766-3.507s7.713,1.181,9.8,3.507a10.738,10.738,0,0,1,2.471,7.477.908.908,0,0,0,.4.845l.663.445c.809,2.644.754,4.66-.182,5.987a3.962,3.962,0,0,1-1.935,1.408A6.05,6.05,0,0,0,36.7,25.769a4.252,4.252,0,0,0-1.463-2.544c-.391-9.085-6.759-10.1-9.5-10.1A11.452,11.452,0,0,0,24,13.25a11.436,11.436,0,0,0-1.735-.127c-2.725,0-9.085,1-9.5,10.1a4.252,4.252,0,0,0-1.481,2.535A6.041,6.041,0,0,0,12.758,30.3Zm20.668-7.449a18.715,18.715,0,0,1-10.856-2.725.908.908,0,0,0-1.181.118c-1.817,1.953-5.133,2.407-6.732,2.507.491-6.423,4.379-7.822,7.649-7.822a8.781,8.781,0,0,1,1.553.127.906.906,0,0,0,.363,0,8.824,8.824,0,0,1,1.553-.127c3.243,0,7.15,1.435,7.6,7.913ZM14.974,30.475l.036.009a.908.908,0,0,0-.227-.609c-1.245-1.426-1.817-2.725-1.662-3.8a2.407,2.407,0,0,1,.827-1.535c1.2,0,5.451-.227,8.176-2.58a20.485,20.485,0,0,0,10.084,2.725,11.98,11.98,0,0,0,1.871-.1,2.4,2.4,0,0,1,.818,1.49c.154,1.054-.418,2.371-1.662,3.8a.908.908,0,0,0-.227.609v.472L27.72,33.791a2.616,2.616,0,1,0,.818,1.9q.006-.123,0-.245l4.17-2.235a9.994,9.994,0,0,1-2.435,4.8,8.094,8.094,0,0,1-6.023,2.253H23.8a8.113,8.113,0,0,1-6.014-2.244C14.911,35.153,14.974,30.52,14.974,30.475Zm11.746,5.215a.809.809,0,1,1-.809-.809A.809.809,0,0,1,26.721,35.689ZM23.087,52.95H1.847c.718-6.823,11.81-9.675,15.28-10.411v1.626c0,2.062,2.507,3.634,5.96,3.9Zm-4.143-8.785V41.031a10.983,10.983,0,0,0,4.824,1.017h.454a10.983,10.983,0,0,0,4.824-1.017v3.134c0,.863-1.971,2.108-5.051,2.108S18.944,45.028,18.944,44.165Zm5.96,8.812V48.053c3.452-.236,5.96-1.817,5.96-3.9v-1.59c3.5.727,14.535,3.579,15.28,10.411H24.9Z" transform="translate(514 253.174)" fill="#e59e00"/></g></svg>